HIERARCHY
ROOT hip
{
  OFFSET 0 0 0
  CHANNELS 6 Xposition Yposition Zposition Zrotation Yrotation Xrotation
  JOINT abdomen
  {
    OFFSET 0 20.6881 -0.73152
    CHANNELS 3 Zrotation Xrotation Yrotation
    JOINT chest
    {
      OFFSET 0 11.7043 -0.48768
      CHANNELS 3 Zrotation Xrotation Yrotation
      JOINT neck
      {
        OFFSET 0 22.1894 -2.19456
        CHANNELS 3 Zrotation Xrotation Yrotation
        JOINT head
        {
          OFFSET -0.24384 7.07133 1.2192
          CHANNELS 3 Zrotation Xrotation Yrotation
          JOINT leftEye
          {
            OFFSET 4.14528 8.04674 8.04672
            CHANNELS 3 Zrotation Xrotation Yrotation
            End Site
            {
              OFFSET 1 0 0
            }
          }
          JOINT rightEye
          {
            OFFSET -3.6576 8.04674 8.04672
            CHANNELS 3 Zrotation Xrotation Yrotation
            End Site
            {
              OFFSET 1 0 0
            }
          }
        }
      }
      JOINT rCollar
      {
        OFFSET -2.68224 19.2634 -4.8768
        CHANNELS 3 Zrotation Xrotation Yrotation
        JOINT rShldr
        {
          OFFSET -8.77824 -1.95073 1.46304
          CHANNELS 3 Zrotation Xrotation Yrotation
          JOINT rForeArm
          {
            OFFSET -28.1742 -1.7115 0.48768
            CHANNELS 3 Zrotation Xrotation Yrotation
            JOINT rHand
            {
              OFFSET -22.5879 0.773209 7.07136
              CHANNELS 3 Zrotation Xrotation Yrotation
              JOINT rThumb1
              {
                OFFSET -1.2192 -0.487915 3.41376
                CHANNELS 3 Zrotation Xrotation Yrotation
                JOINT rThumb2
                {
                  OFFSET -3.37035 -0.52449 3.41376
                  CHANNELS 3 Zrotation Xrotation Yrotation
                  End Site
                  {
                    OFFSET -1.78271 -1.18214 1.43049
                  }
                }
              }
              JOINT rIndex1
              {
                OFFSET -7.75947 0.938293 5.60832
                CHANNELS 3 Zrotation Xrotation Yrotation
                JOINT rIndex2
                {
                  OFFSET -2.54057 -0.884171 1.56538
                  CHANNELS 3 Zrotation Xrotation Yrotation
                  End Site
                  {
                    OFFSET -1.62519 -0.234802 1.16502
                  }
                }
              }
              JOINT rMid1
              {
                OFFSET -8.24714 1.18213 3.41376
                CHANNELS 3 Zrotation Xrotation Yrotation
                JOINT rMid2
                {
                  OFFSET -3.10165 -0.590103 1.0647
                  CHANNELS 3 Zrotation Xrotation Yrotation
                  End Site
                  {
                    OFFSET -2.48547 -0.328903 0.83742
                  }
                }
              }
              JOINT rRing1
              {
                OFFSET -8.82822 0.546677 1.51678
                CHANNELS 3 Zrotation Xrotation Yrotation
                JOINT rRing2
                {
                  OFFSET -2.60934 -0.819778 -0.0198488
                  CHANNELS 3 Zrotation Xrotation Yrotation
                  End Site
                  {
                    OFFSET -2.33842 -0.294052 0.168128
                  }
                }
              }
              JOINT rPinky1
              {
                OFFSET -8.27202 -0.0477905 -0.4584
                CHANNELS 3 Zrotation Xrotation Yrotation
                JOINT rPinky2
                {
                  OFFSET -1.82734 -0.647385 -0.700984
                  CHANNELS 3 Zrotation Xrotation Yrotation
                  End Site
                  {
                    OFFSET -1.69225 -0.51767 -0.607171
                  }
                }
              }
            }
          }
        }
      }
      JOINT lCollar
      {
        OFFSET 2.68224 19.2634 -4.8768
        CHANNELS 3 Zrotation Xrotation Yrotation
        JOINT lShldr
        {
          OFFSET 8.77824 -1.95073 1.46304
          CHANNELS 3 Zrotation Xrotation Yrotation
          JOINT lForeArm
          {
            OFFSET 28.1742 -1.7115 0.48768
            CHANNELS 3 Zrotation Xrotation Yrotation
            JOINT lHand
            {
              OFFSET 22.5879 0.773209 7.07136
              CHANNELS 3 Zrotation Xrotation Yrotation
              JOINT lThumb1
              {
                OFFSET 1.2192 -0.487915 3.41376
                CHANNELS 3 Zrotation Xrotation Yrotation
                JOINT lThumb2
                {
                  OFFSET 3.37035 -0.52449 3.41376
                  CHANNELS 3 Zrotation Xrotation Yrotation
                  End Site
                  {
                    OFFSET 1.78271 -1.18214 1.43049
                  }
                }
              }
              JOINT lIndex1
              {
                OFFSET 7.75947 0.938293 5.60832
                CHANNELS 3 Zrotation Xrotation Yrotation
                JOINT lIndex2
                {
                  OFFSET 2.54057 -0.884171 1.56538
                  CHANNELS 3 Zrotation Xrotation Yrotation
                  End Site
                  {
                    OFFSET 1.62519 -0.234802 1.16502
                  }
                }
              }
              JOINT lMid1
              {
                OFFSET 8.24714 1.18213 3.41376
                CHANNELS 3 Zrotation Xrotation Yrotation
                JOINT lMid2
                {
                  OFFSET 3.10165 -0.590103 1.0647
                  CHANNELS 3 Zrotation Xrotation Yrotation
                  End Site
                  {
                    OFFSET 2.48547 -0.328903 0.83742
                  }
                }
              }
              JOINT lRing1
              {
                OFFSET 8.82822 0.546677 1.51678
                CHANNELS 3 Zrotation Xrotation Yrotation
                JOINT lRing2
                {
                  OFFSET 2.60934 -0.819778 -0.0198488
                  CHANNELS 3 Zrotation Xrotation Yrotation
                  End Site
                  {
                    OFFSET 2.33842 -0.294052 0.168128
                  }
                }
              }
              JOINT lPinky1
              {
                OFFSET 8.27202 -0.0477905 -0.4584
                CHANNELS 3 Zrotation Xrotation Yrotation
                JOINT lPinky2
                {
                  OFFSET 1.82734 -0.647385 -0.700984
                  CHANNELS 3 Zrotation Xrotation Yrotation
                  End Site
                  {
                    OFFSET 1.69225 -0.51767 -0.607171
                  }
                }
              }
            }
          }
        }
      }
    }
  }
  JOINT rButtock
  {
    OFFSET -8.77824 4.35084 1.2192
    CHANNELS 3 Zrotation Xrotation Yrotation
    JOINT rThigh
    {
      OFFSET 0 -1.70687 -2.19456
      CHANNELS 3 Zrotation Xrotation Yrotation
      JOINT rShin
      {
        OFFSET 0 -36.8199 0.73152
        CHANNELS 3 Zrotation Xrotation Yrotation
        JOINT rFoot
        {
          OFFSET 0.73152 -45.1104 -5.12064
          CHANNELS 3 Zrotation Xrotation Yrotation
          End Site
          {
            OFFSET -1.1221 -3.69964 12.103
          }
        }
      }
    }
  }
  JOINT lButtock
  {
    OFFSET 8.77824 4.35084 1.2192
    CHANNELS 3 Zrotation Xrotation Yrotation
    JOINT lThigh
    {
      OFFSET 0 -1.70687 -2.19456
      CHANNELS 3 Zrotation Xrotation Yrotation
      JOINT lShin
      {
        OFFSET 0 -36.8199 0.73152
        CHANNELS 3 Zrotation Xrotation Yrotation
        JOINT lFoot
        {
          OFFSET -0.73152 -45.1104 -5.12064
          CHANNELS 3 Zrotation Xrotation Yrotation
          End Site
          {
            OFFSET 1.1221 -3.69964 12.103
          }
        }
      }
    }
  }
}
MOTION
Frames:	4
Frame Time:	0.03333
0.04650008688374622 83.3994989358746 -60.81290034897056 96.80399322509766 55.15570068359375 95.90199279785156 -12.375101089477539 37.516700744628906 12.660700798034668 -5.3165998458862305 -11.041099548339844 2.0828702449798584 1.5667797327041626 11.645500183105469 8.530370712280273 -15.708700180053711 -22.31490135192871 14.302696228027344 -0.0 0.0 -0.0 -0.0 0.0 -0.0 8.461389141428688e-13 1.851889952150798e-12 2.641849954944375e-13 1.815229892730713 52.43680191040039 52.92790222167969 -27.584999084472656 -42.20600891113281 87.97439575195312 -0.018206201493740082 3.8492095470428467 0.541795015335083 -2.3118700287483307e-09 1.8909200871775056e-09 9.266069578295344e-10 -3.989789831848611e-09 3.2891098733500712e-09 1.6113199663436717e-09 -2.3118700287483307e-09 1.8909200871775056e-09 9.265969103111615e-10 7.730909824371338 5.474879741668701 0.4173140823841095 -2.3118700287483307e-09 1.8909200871775056e-09 9.26593912708995e-10 2.9055399894714355 0.9651829600334167 0.10290199518203735 -2.311859814696504e-09 1.8909298571401223e-09 9.265959111104394e-10 10.27859878540039 0.73180091381073 0.025912316516041756 -2.3118700287483307e-09 1.8909298571401223e-09 9.265969103111615e-10 2.221669912338257 -0.733487069606781 -0.208919957280159 8.459219652881544e-13 1.8518700028308244e-12 2.63836993702124e-13 -66.09009552001953 -1.8525899648666382 -0.7092560529708862 26.99799919128418 -26.33099937438965 -61.40829849243164 1.5900497436523438 -33.34400177001953 5.305879592895508 -1.2655498871083637e-09 -7.948690317061136e-11 -1.2310499286627419e-09 -2.1380197612330676e-09 -3.8665698420814465e-10 -2.1600998767468127e-09 -1.2655498871083637e-09 -7.949519514882653e-11 -1.2310299446482986e-09 -7.730909824371338 5.474879741668701 -0.4173140823841095 -1.2655400061234445e-09 -7.94892970890082e-11 -1.2310398256332178e-09 -2.9055399894714355 0.9651829600334167 -0.10290199518203735 -1.2655498871083637e-09 -7.948619540343316e-11 -1.2310398256332178e-09 -10.27859878540039 0.73180091381073 -0.025912316516041756 -1.2655400061234445e-09 -7.94900048561864e-11 -1.2310499286627419e-09 -2.221669912338257 -0.733487069606781 0.208919957280159 -2.0321699480147914e-16 0.0 -3.8825099822884138e-19 -38.9801025390625 -22.87870216369629 -6.9165802001953125 -0.08291579782962799 42.40680694580078 2.6000096797943115 -4.215080261230469 -6.285320281982422 -25.35449981689453 2.0321699480147914e-16 0.0 3.8825099822884138e-19 136.31900024414062 -17.36509895324707 126.09799194335938 177.20599365234375 46.412899017333984 -176.8249969482422 -2.3734700679779053 -0.38723403215408325 -6.934150695800781
0.05360008686876765 82.05360332973443 -60.17590036511078 98.94801330566406 57.394500732421875 97.78401184082031 -11.096899032592773 38.39249801635742 13.213500022888184 -6.150780200958252 -10.886100769042969 2.216050148010254 1.6354498863220215 11.877300262451172 8.749049186706543 -15.023699760437012 -23.21900177001953 14.699200630187988 -0.0 0.0 -0.0 -0.0 0.0 -0.0 4.2423397151984676e-13 1.1383100408449143e-12 1.7610998701960692e-15 2.3139097690582275 52.631004333496094 53.109397888183594 -27.45549774169922 -42.66350555419922 88.8357925415039 -0.02183529920876026 4.214700222015381 0.5934178829193115 -1.8643000476714633e-09 1.4219300181750327e-09 7.009859359641268e-10 -3.2156497464796985e-09 2.4699200462663384e-09 1.2176198938007587e-09 -1.86430981763408e-09 1.4219300181750327e-09 7.009729463547387e-10 7.730909824371338 5.474879741668701 0.4173140823841095 -1.86430981763408e-09 1.4219199151455086e-09 7.00980939960516e-10 2.9055399894714355 0.9651829600334167 0.10290199518203735 -1.8643000476714633e-09 1.4219300181750327e-09 7.009789415590717e-10 10.27859878540039 0.73180091381073 0.025912316516041756 -1.8643000476714633e-09 1.4219300181750327e-09 7.009829938731116e-10 2.221669912338257 -0.733487069606781 -0.208919957280159 4.2405198818519507e-13 1.1382699253645323e-12 1.4753300120337815e-15 -65.01699829101562 -0.2678540050983429 -1.465210199356079 27.789897918701172 -29.41370391845703 -66.31539916992188 1.6260100603103638 -33.66290283203125 5.3707404136657715 -1.518730002869617e-10 -3.175509855068981e-09 -1.3154799471948309e-09 -2.2191899706758278e-10 -5.648409739933413e-09 -2.273359722693158e-09 -1.5187398560989607e-10 -3.175509855068981e-09 -1.3154698441653068e-09 -7.730909824371338 5.474879741668701 -0.4173140823841095 -1.5186898960628525e-10 -3.175509855068981e-09 -1.3154799471948309e-09 -2.9055399894714355 0.9651829600334167 -0.10290199518203735 -1.5187999469201685e-10 -3.175509855068981e-09 -1.3154799471948309e-09 -10.27859878540039 0.73180091381073 -0.025912316516041756 -1.5186898960628525e-10 -3.175509855068981e-09 -1.3154799471948309e-09 -2.221669912338257 -0.733487069606781 0.208919957280159 -2.0321699480147914e-16 0.0 -3.8825099822884138e-19 -36.88209915161133 -23.977800369262695 -9.299099922180176 -0.1360749900341034 45.52720260620117 2.7006397247314453 -4.949780464172363 -7.705869674682617 -24.714399337768555 2.0321699480147914e-16 0.0 3.8825099822884138e-19 137.66600036621094 -18.01620101928711 133.552001953125 177.24099731445312 44.848697662353516 -176.73199462890625 -2.031330108642578 1.0997700691223145 -6.498539924621582
0.03940008689872478 80.66409696574371 -59.6539003830282 101.19400024414062 61.507408142089844 99.70299530029297 -8.669548988342285 39.14360427856445 13.61870002746582 -7.172729969024658 -10.66910171508789 2.417210102081299 1.6321500539779663 12.168399810791016 8.985289573669434 -14.301199913024902 -23.911598205566406 15.188398361206055 -0.0 0.0 -0.0 -0.0 0.0 -0.0 -1.2398999741421862e-13 5.329199944835092e-14 -2.1930898666099735e-13 2.7695796489715576 52.95039367675781 53.0404052734375 -27.320899963378906 -43.0911979675293 89.66439819335938 -0.02417609840631485 4.434230327606201 0.6244499087333679 -5.365499711196264e-10 1.423569817582404e-09 3.112679836103638e-10 -9.235440190380473e-10 2.461989945246046e-09 5.381109446922494e-10 -5.365499711196264e-10 1.423569817582404e-09 3.1125496624540006e-10 7.730909824371338 5.474879741668701 0.4173140823841095 -5.365499711196264e-10 1.423559936597485e-09 3.112749780154189e-10 2.9055399894714355 0.9651829600334167 0.10290199518203735 -5.365440314264447e-10 1.423569817582404e-09 3.112669844096416e-10 10.27859878540039 0.73180091381073 0.025912316516041756 -5.365489719189043e-10 1.423569817582404e-09 3.112749780154189e-10 2.221669912338257 -0.733487069606781 -0.208919957280159 -1.2415100143683272e-13 5.3255299204812284e-14 -2.1955800079496296e-13 -64.07969665527344 0.8652052879333496 -2.3939902782440186 28.227998733520508 -32.21149826049805 -70.79460144042969 1.6308997869491577 -33.708099365234375 5.379829406738281 7.021039860610756e-10 -4.087330029989289e-09 -1.1978701364157018e-09 1.2376599745067551e-09 -7.0694894382938855e-09 -2.0448498450065244e-09 7.02105040772949e-10 -4.087319815937462e-09 -1.1978701364157018e-09 -7.730909824371338 5.474879741668701 -0.4173140823841095 7.021079828639643e-10 -4.087319815937462e-09 -1.1978701364157018e-09 -2.9055399894714355 0.9651829600334167 -0.10290199518203735 7.020959924552983e-10 -4.087319815937462e-09 -1.1978701364157018e-09 -10.27859878540039 0.73180091381073 -0.025912316516041756 7.02105040772949e-10 -4.087330029989289e-09 -1.1978701364157018e-09 -2.221669912338257 -0.733487069606781 0.208919957280159 -2.0321699480147914e-16 0.0 -3.8825099822884138e-19 -33.9330940246582 -24.874601364135742 -11.483597755432129 -0.18645699322223663 48.10150146484375 2.76535964012146 -5.507109642028809 -8.937060356140137 -24.056598663330078 2.0321699480147914e-16 0.0 3.8825099822884138e-19 139.9619903564453 -19.87310028076172 139.2010040283203 177.239990234375 44.41849899291992 -176.6790008544922 -1.631739854812622 2.103410005569458 -5.737589359283447
-0.08069991841415636 79.42219781990615 -59.3069003862498 103.39000701904297 65.20980072021484 101.24500274658203 -6.830510139465332 40.114097595214844 14.317400932312012 -7.823440074920654 -10.681800842285156 2.697119951248169 1.478859782218933 12.410699844360352 9.25570011138916 -13.225798606872559 -24.443601608276367 15.839999198913574 -0.0 0.0 -0.0 -0.0 0.0 -0.0 -2.0930399611835543e-13 -6.255219866385664e-13 1.073189998782205e-13 3.0403997898101807 53.256195068359375 52.86240005493164 -27.211999893188477 -43.419700622558594 90.30339813232422 -0.015376999974250793 3.616650104522705 0.5089240074157715 1.0076899314981347e-09 9.474489637284478e-09 1.5308500023181182e-09 1.7379397920791462e-09 1.6385998335977092e-08 2.645380137167308e-09 1.0076899314981347e-09 9.474500295425514e-09 1.530839899288594e-09 7.730909824371338 5.474879741668701 0.4173140823841095 1.007679939490913e-09 9.474500295425514e-09 1.5308599943253398e-09 2.9055399894714355 0.9651829600334167 0.10290199518203735 1.0076899314981347e-09 9.474500295425514e-09 1.5308500023181182e-09 10.27859878540039 0.73180091381073 0.025912316516041756 1.0076899314981347e-09 9.474500295425514e-09 1.5308599943253398e-09 2.221669912338257 -0.733487069606781 -0.208919957280159 -2.0946899813648057e-13 -6.255309313064894e-13 1.0696800297740547e-13 -63.462799072265625 1.676369547843933 -3.413210153579712 28.403099060058594 -34.532100677490234 -74.66339874267578 1.5684400796890259 -33.146305084228516 5.266129970550537 -2.1808599370842785e-09 -1.526779952465418e-10 -2.3905899482201676e-09 -3.7110996498057602e-09 -4.3883396916299944e-10 -4.179119716951618e-09 -2.1808699290915e-09 -1.5267999364798612e-10 -2.3905899482201676e-09 -7.730909824371338 5.474879741668701 -0.4173140823841095 -2.1808599370842785e-09 -1.526810067264961e-10 -2.3905997181827843e-09 -2.9055399894714355 0.9651829600334167 -0.10290199518203735 -2.1808699290915e-09 -1.5267401232144096e-10 -2.3905997181827843e-09 -10.27859878540039 0.73180091381073 -0.025912316516041756 -2.1808599370842785e-09 -1.5267899444726396e-10 -2.390609932234611e-09 -2.221669912338257 -0.733487069606781 0.208919957280159 -2.0321699480147914e-16 0.0 -3.8825099822884138e-19 -31.30259895324707 -25.49239730834961 -13.35990047454834 -0.23801098763942719 50.28710174560547 2.831479787826538 -5.805449962615967 -9.91859245300293 -23.24830436706543 2.0321699480147914e-16 0.0 3.8825099822884138e-19 141.51100158691406 -21.688404083251953 141.98699951171875 177.23699951171875 44.619598388671875 -176.6689910888672 -1.2213801145553589 2.2578797340393066 -4.5806403160095215
